<svg viewBox="0 0 739 715" fill="none" xmlns="http://www.w3.org/2000/svg"><g class="image-top_svg__gradients"><path d="M691 531a177.5 184 0 01-177.5 184A177.5 184 0 01336 531a177.5 184 0 01177.5-184A177.5 184 0 01691 531z" fill="url(#image-top_svg__a)" class="image-top_svg__saturate"></path><path d="M437 301a218.5 221 0 01-218.5 221A218.5 221 0 010 301 218.5 221 0 01218.5 80 218.5 221 0 01437 301z" fill="url(#image-top_svg__b)"></path><path d="M626 267a218.5 221 0 01-218.5 221A218.5 221 0 01189 267 218.5 221 0 01407.5 46 218.5 221 0 01626 267z" fill="url(#image-top_svg__c)"></path><path d="M716 186a174.5 186 0 01-174.5 186A174.5 186 0 01367 186 174.5 186 0 01541.5 0 174.5 186 0 01716 186z" fill="url(#image-top_svg__d)"></path><path d="M490 243c0 122.06-97.83 221-218.5 221S53 365.06 53 243 150.83 22 271.5 22 490 120.94 490 243z" fill="url(#image-top_svg__e)"></path><path d="M556 419a245 237 0 01-245 237A245 237 0 0166 419a245 237 0 01245-237 245 237 0 01245 237z" fill="url(#image-top_svg__f)" class="image-top_svg__saturate"></path><path d="M739 324a218.5 221 0 01-218.5 221A218.5 221 0 01302 324a218.5 221 0 01218.5-221A218.5 221 0 01739 324z" fill="url(#image-top_svg__g)" class="image-top_svg__saturate"></path></g><path d="M354.6 502.43a1 1 0 00-1.12.86c-.9 6.82 3.23 13.73 11.86 18.71L544.2 625.27c11.88 6.86 30.68 6.86 42.56 0l63.56-36.7c8.22-4.74 12.35-11.2 11.96-17.71a1 1 0 00-1.06-.94 1 1 0 00-.94 1.06c.34 5.6-3.17 11.37-10.96 15.86l-63.56 36.7c-11.07 6.4-29.5 6.4-40.56 0L366.34 520.27c-8.19-4.73-11.65-10.85-10.88-16.72a1 1 0 00-.86-1.12z" color="#000" fill="#002a5e"></path><path d="M354.6 501.43a1 1 0 00-1.12.86c-.9 6.82 3.23 13.73 11.86 18.71L544.2 624.27c11.88 6.86 30.68 6.86 42.56 0l63.56-36.7c8.22-4.74 12.35-11.2 11.96-17.71a1 1 0 00-1.06-.94 1 1 0 00-.94 1.06c.34 5.6-3.17 11.37-10.96 15.86l-63.56 36.7c-11.07 6.4-29.5 6.4-40.56 0L366.34 519.27c-8.19-4.73-11.65-10.85-10.88-16.72a1 1 0 00-.86-1.12z" color="#000" fill="#002a5e"></path><path d="M450.18 444.43c-7.67 0-15.34 1.71-21.28 5.14l-63.56 36.7c-7.86 4.54-11.98 10.63-11.98 16.86 0 6.24 4.12 12.34 11.98 16.87L544.2 623.27c11.88 6.86 30.68 6.86 42.56 0l63.56-36.7c7.86-4.53 11.98-10.63 11.98-16.86 0-6.23-4.12-12.33-11.98-16.87L471.47 449.57c-5.94-3.43-13.62-5.14-21.29-5.14zm0 2.08c7.38 0 14.75 1.6 20.29 4.8l178.86 103.26c7.45 4.3 10.98 9.79 10.98 15.14 0 5.35-3.53 10.83-10.98 15.13l-63.56 36.7c-11.07 6.39-29.5 6.39-40.56 0L366.34 518.27c-7.45-4.3-10.98-9.78-10.98-15.14 0-5.35 3.53-10.83 10.98-15.13l63.56-36.7c5.54-3.2 12.91-4.79 20.28-4.79zM646.04 85.16c-4.86-.41-10.44 1.1-16.16 4.4L449.95 193.43c-13.05 7.53-21.29 23.2-21.29 36.86v74.24c0 11.66 5.79 19.48 14.24 20.98a1 1 0 001.16-.8 1 1 0 00-.8-1.17c-7.46-1.32-12.6-8-12.6-19V230.3c0-12.84 7.97-28.02 20.29-35.13L630.88 91.29c5.45-3.15 10.67-4.5 15-4.14 4.31.37 7.74 2.38 9.94 6.17a1 1 0 001.37.36 1 1 0 00.36-1.37 14.28 14.28 0 00-11.5-7.15z" color="#000" fill="#002a5e"></path><path d="M643.38 85.73c-3.75.32-7.85 1.72-12.13 4.19L451.3 193.8c-13.05 7.54-21.28 23.2-21.28 36.87v74.24c0 11.65 5.78 19.47 14.24 20.98a1 1 0 001.16-.81 1 1 0 00-.81-1.16c-7.45-1.33-12.6-8-12.6-19.01v-74.24c0-12.85 7.98-28.02 20.3-35.13L632.24 91.65c5.45-3.15 10.43-4.37 14.52-3.88 4.1.48 7.33 2.6 9.55 6.42a1 1 0 001.37.36 1 1 0 00.36-1.37 14.47 14.47 0 00-11.04-7.4 18.07 18.07 0 00-3.63-.05z" color="#000" fill="#002a5e"></path><path d="M643.83 86.45c-3.49.3-7.29 1.57-11.22 3.84L452.68 194.17c-11.88 6.86-21.28 23.14-21.28 36.87v74.24c0 9.07 3.22 15.69 8.61 18.8 5.4 3.12 12.74 2.6 20.6-1.94l179.93-103.88c11.89-6.86 21.28-23.15 21.28-36.87v-74.24c0-9.07-3.21-15.7-8.61-18.8a15.72 15.72 0 00-9.38-1.9zm.14 1.98c3.14-.28 5.92.3 8.24 1.65 4.63 2.67 7.61 8.47 7.61 17.07v74.24c0 12.79-9.2 28.74-20.28 35.14L459.61 320.4c-7.45 4.3-13.96 4.61-18.6 1.94-4.63-2.68-7.61-8.47-7.61-17.07v-74.24c0-12.8 9.2-28.75 20.28-35.14L633.61 92.02c3.73-2.15 7.22-3.3 10.36-3.59zm-414.47 67.8a21.01 21.01 0 00-28.69 7.69 21.02 21.02 0 007.69 28.68 21.01 21.01 0 0028.69-7.68 21.02 21.02 0 00-7.7-28.69zm-1 1.73a18.99 18.99 0 016.95 25.96 18.98 18.98 0 01-25.95 6.95 18.98 18.98 0 01-6.96-25.95 18.99 18.99 0 0125.96-6.96z" color="#000" fill="#002a5e"></path><path d="M232.94 187.38c-3.07 5.38-15.24 9.79-24.1 4.67-8.88-5.12-11.7-17.37-8.02-23.21-.82 3.16-1.27 12.13 10.33 18.83 11.6 6.7 19.35 2.83 21.79-.29z" fill="#002A5E"></path><path d="M381.27 389.8a16.36 16.36 0 00-22.33 5.99 16.36 16.36 0 005.99 22.33 16.36 16.36 0 0022.32-5.98 16.36 16.36 0 00-5.98-22.33zm-1 1.74a14.33 14.33 0 015.25 19.6 14.33 14.33 0 01-19.6 5.25 14.33 14.33 0 01-5.25-19.6 14.33 14.33 0 0119.6-5.25z" color="#000" fill="#002a5e"></path><path d="M383.8 413.9c-2.32 4.02-11.7 7.52-18.5 3.59-6.8-3.93-8.47-13.8-6.15-17.8 0 0-.97 9.3 7.92 14.44 8.9 5.13 16.72-.22 16.72-.22z" fill="#002A5E"></path><path d="M497.48 43.07a8.89 8.89 0 00-12.12 3.25 8.89 8.89 0 003.25 12.12 8.89 8.89 0 0012.12-3.25 8.89 8.89 0 00-3.25-12.12zm-1 1.73a6.86 6.86 0 012.52 9.4 6.86 6.86 0 01-9.4 2.51 6.86 6.86 0 01-2.5-9.38 6.86 6.86 0 019.38-2.52z" color="#000" fill="#002a5e"></path><path d="M498.53 55.86c-1.19 2.05-6 3.85-9.49 1.83-3.49-2.01-4.34-7.08-3.15-9.13 0 0-.5 4.77 4.06 7.4 4.57 2.64 8.58-.1 8.58-.1z" fill="#002A5E"></path><path d="M277.2 214.35c-4.37-.37-9.3.82-14.35 3.73l-64.3 37.12c-11.83 6.83-21.28 21.8-21.28 36.86v207.77c0 6.6 1.48 12.19 4.27 16.2 2.8 4 6.96 6.37 11.96 6.39a1 1 0 001-1 1 1 0 00-1-1c-4.38-.01-7.83-1.98-10.31-5.54-2.48-3.56-3.92-8.75-3.92-15.05V292.06c0-14.22 9.16-28.7 20.28-35.13l64.3-37.12c9.53-5.5 17.88-4.39 22.76 1.4a1 1 0 001.4.12 1 1 0 00.12-1.4 15.7 15.7 0 00-10.93-5.58z" color="#000" fill="#002a5e"></path><path d="M278.2 215.35c-4.37-.37-9.3.81-14.35 3.73l-64.3 37.12c-11.83 6.83-21.28 21.8-21.28 36.86v207.77c0 6.6 1.49 11.96 4.3 15.72a14.47 14.47 0 0011.93 5.87 1 1 0 001-1 1 1 0 00-1-1c-4.42-.01-7.87-1.77-10.33-5.07-2.47-3.3-3.9-8.22-3.9-14.52V293.06c0-14.22 9.16-28.7 20.28-35.13l64.3-37.12c9.53-5.5 17.88-4.4 22.76 1.4a1 1 0 001.4.12 1 1 0 00.12-1.4 15.7 15.7 0 00-10.93-5.58z" color="#000" fill="#002a5e"></path><path d="M276.07 216.24c-3.5.3-7.3 1.57-11.22 3.84l-64.3 37.12c-11.88 6.86-21.28 23.14-21.28 36.86v207.77c0 9.07 3.22 15.7 8.61 18.81 5.4 3.12 12.75 2.6 20.6-1.94l64.3-37.12c11.88-6.86 21.28-23.14 21.28-36.87V236.95c0-9.08-3.22-15.7-8.62-18.81a15.72 15.72 0 00-9.37-1.9zm.13 1.98c3.14-.28 5.93.31 8.24 1.65 4.64 2.68 7.62 8.47 7.62 17.08V444.7c0 12.79-9.21 28.74-20.28 35.14l-64.3 37.12c-7.45 4.3-13.96 4.61-18.6 1.94-4.63-2.68-7.61-8.48-7.61-17.08V294.06c0-12.78 9.2-28.73 20.28-35.13l64.3-37.12c3.72-2.15 7.21-3.3 10.35-3.59z" color="#000" fill="#002a5e"></path><path d="M593.67 215.99v-1h.02l-.02 1zm21.16 36.92l.87.5-.87-.5zM328.28 96.3c0 .54-.4.77-.87.5a1.91 1.91 0 01-.87-1.5l1.74 1zm286.55 344.4l.87.5-.87-.5zM593.69 215c11.08 6.68 22 23.82 22 38.4l-1.73-1c0-13.38-10.07-29.25-20.31-35.43l.04-1.97zM357.13 78.42l236.54 136.57v2L357.13 80.42v-2zM326.54 95.3c0-7.77 3.62-14.3 9.19-17.74 5.57-3.45 13.2-3.87 21.4.86v2c-7.6-4.39-14.82-4.06-20.16-.75-5.35 3.3-8.7 9.52-8.7 16.63l-1.73-1zM615.7 441.2c0 18.74-12.38 25.42-27.22 19.79l-.3-2.14c14.16 5.37 25.78-1.05 25.78-18.64l1.74 1zm0-187.8v187.8l-1.74-1V252.4l1.74 1z" fill="#002A5E"></path><path d="M592.67 216.99v-1h.02l-.02 1zm21.16 36.92l.87.5-.87-.5zM328.28 97.3c0 .54-.4.77-.87.5a1.91 1.91 0 01-.87-1.5l1.74 1zm285.55 344.4l.87.5-.87-.5zM592.69 216c11.08 6.68 22 23.82 22 38.4l-1.73-1c0-13.38-10.07-29.25-20.31-35.43l.04-1.97zM356.13 79.42l236.54 136.56v2L356.13 81.43v-2zM326.54 96.3c0-8.24 3.35-14.79 8.69-18.12 5.33-3.33 12.73-3.48 20.9 1.24v2c-7.62-4.4-14.58-4.3-19.66-1.13s-8.2 9.37-8.2 17.01l-1.73-1zM614.7 442.2c0 9.4-3.88 15.76-9.33 18.8-5.43 3.04-12.51 2.83-19.06-1.1l.04-1.97c5.95 3.57 12.62 3.85 17.81.94 5.18-2.9 8.8-8.9 8.8-17.66l1.74 1zm0-187.8v187.8l-1.74-1V253.4l1.74 1z" fill="#002A5E"></path><path d="M344.4 76.85c-3.49-.31-6.67.34-9.37 1.9-5.4 3.11-8.62 9.73-8.62 18.8v187.97c0 13.73 9.4 30 21.29 36.87l236.54 136.57c7.86 4.53 15.2 5.05 20.6 1.94 5.4-3.12 8.61-9.74 8.61-18.8V254.11c0-13.72-9.4-30-21.28-36.87L355.63 80.7c-3.93-2.27-7.73-3.54-11.22-3.84zm-.13 1.98c3.14.28 6.63 1.44 10.36 3.59l236.54 136.57c11.07 6.39 20.28 22.34 20.28 35.13v187.97c0 8.6-2.98 14.4-7.61 17.08-4.64 2.67-11.15 2.36-18.6-1.95L348.7 320.66c-11.08-6.4-20.29-22.35-20.29-35.14V97.55c0-8.6 2.99-14.4 7.62-17.07a13.77 13.77 0 018.24-1.65z" color="#000" fill="#002a5e"></path><path d="M386.09 590.62l-.87.5h.01l.01.01.85-.5zm42.55-.13l.87.5-.87-.5zm-278.9-169.86c.48-.28.48-.73 0-1a1.91 1.91 0 00-1.73 0l1.73 1zm441.54 75.96l.87.5-.87-.5zm-206.04 94.54c11.33 6.26 31.63 7.15 44.27-.14l-1.73-1c-11.6 6.7-30.37 5.9-40.84.12l-1.7 1.02zM148.68 454.56l236.54 136.56 1.73-1-236.54-136.56-1.73 1zm-.67-34.93c-6.73 3.88-10.58 10.28-10.78 16.82-.2 6.55 3.26 13.38 11.45 18.1l1.73-1c-7.6-4.38-10.92-10.8-10.73-17.07.2-6.29 3.9-12.3 10.06-15.85l-1.73-1zm444.14 77.46c16.22-9.37 15.82-23.42 3.52-33.47l-2 .82c11.73 9.58 11.99 22.85-3.25 31.65l1.73 1zm-162.64 93.9l162.64-93.9-1.73-1-162.64 93.9 1.73 1z" fill="#002A5E"></path><path d="M386.45 589.26l-.86.5h.02l.84-.5zm42.56-.14l.87.5-.87-.5zm-278.4-169c.48-.27.48-.72 0-1a1.92 1.92 0 00-1.74 0l1.74 1zm441.04 75.1l.87.5-.87-.5zM385.6 589.77c11.33 6.25 31.63 7.15 44.27-.15l-1.74-1c-11.6 6.7-30.37 5.9-40.84.13l-1.7 1.02zM149.04 453.19L385.6 589.76l1.73-1-236.54-136.57-1.74 1zm-.16-34.06c-7.14 4.12-11.14 10.3-11.35 16.58-.22 6.29 3.35 12.76 11.51 17.48l1.74-1c-7.62-4.4-11.01-10.48-10.8-16.46.2-5.98 4.01-11.78 10.63-15.6l-1.74-1zm443.63 76.6c8.15-4.7 11.7-11.24 11.62-17.48-.09-6.22-3.8-12.26-10.48-15.96l-1.7 1.02c6.08 3.37 9.65 9 9.73 14.95.08 5.94-3.31 12.08-10.9 16.46l1.74 1zm-162.63 93.9l162.63-93.9-1.73-1-162.64 93.9 1.74 1z" fill="#002A5E"></path><path d="M333.97 319.26c-7.67 0-15.35 1.71-21.29 5.14l-162.79 94c-7.85 4.53-11.98 10.62-11.98 16.86 0 6.23 4.13 12.33 11.98 16.86L386.44 588.7c11.88 6.86 30.68 6.86 42.57 0l162.78-93.99c7.86-4.53 11.98-10.63 11.98-16.86 0-6.23-4.12-12.33-11.98-16.87L355.25 324.4c-5.94-3.43-13.61-5.14-21.28-5.14zm0 2.08c7.37 0 14.75 1.6 20.28 4.8L590.8 462.7c7.45 4.3 10.98 9.79 10.98 15.14 0 5.35-3.53 10.83-10.98 15.13l-162.78 93.99c-11.08 6.39-29.5 6.39-40.57 0L150.89 450.39c-7.45-4.3-10.98-9.78-10.98-15.13 0-5.35 3.53-10.84 10.98-15.14l162.8-93.98c5.53-3.2 12.9-4.8 20.28-4.8z" color="#000" fill="#002a5e"></path><path d="M441.44 607.9c-.4-.23-.64-.54-.64-.87 0-.33.23-.65.63-.88.4-.23.96-.37 1.53-.37.57 0 1.12.14 1.52.37.4.23.63.55.63.88 0 .33-.22.64-.63.88-.4.23-.95.36-1.52.36-.57 0-1.12-.13-1.52-.36zm-48.77-28.15c-.4-.23-.63-.54-.63-.88 0-.33.22-.64.63-.88.4-.23.95-.36 1.52-.36.57 0 1.12.13 1.52.37.4.23.64.54.64.88 0 .33-.23.64-.64.88-.4.23-.95.36-1.52.36-.57 0-1.12-.13-1.52-.37zm0 56.31c-.4-.23-.63-.55-.63-.88 0-.33.22-.64.63-.88.4-.23.95-.36 1.52-.36.57 0 1.12.13 1.52.36.4.24.64.55.64.88 0 .33-.23.65-.64.88-.4.24-.95.37-1.52.37-.57 0-1.12-.13-1.52-.37zM343.9 607.9c-.4-.23-.63-.54-.63-.87 0-.33.23-.65.63-.88.4-.23.95-.37 1.52-.37.57 0 1.12.14 1.53.37.4.23.63.55.63.88 0 .33-.23.64-.63.88-.4.23-.95.36-1.53.36-.57 0-1.12-.13-1.52-.36zm85.34-7.03c-.4-.23-.63-.55-.63-.88 0-.33.23-.65.63-.88.4-.23.95-.36 1.53-.36.57 0 1.12.13 1.52.36.4.23.63.55.63.88 0 .33-.23.65-.63.88-.4.23-.95.36-1.52.36-.57 0-1.12-.13-1.53-.36zm-48.76-28.15c-.4-.24-.64-.55-.64-.88 0-.33.23-.65.64-.88.4-.24.95-.37 1.52-.37.57 0 1.12.13 1.52.37.4.23.63.55.63.88 0 .33-.22.64-.63.88-.4.23-.95.36-1.52.36-.57 0-1.12-.13-1.52-.36zm0 56.3c-.4-.23-.64-.55-.64-.88 0-.33.23-.64.64-.88.4-.23.95-.36 1.52-.36.57 0 1.12.13 1.52.36.4.24.63.55.63.88 0 .33-.22.65-.63.88-.4.24-.95.37-1.52.37-.57 0-1.12-.13-1.52-.37zm-48.78-28.15c-.4-.23-.62-.55-.62-.88 0-.33.22-.65.63-.88.4-.23.95-.36 1.52-.36.57 0 1.12.13 1.52.36.4.23.64.55.64.88 0 .33-.23.65-.63.88-.4.23-.96.36-1.53.36-.57 0-1.12-.13-1.52-.36zm85.35-7.04c-.4-.23-.63-.55-.63-.88 0-.33.23-.64.63-.88.4-.23.95-.36 1.52-.36.58 0 1.13.13 1.53.36.4.24.63.55.63.88 0 .33-.23.65-.63.88-.4.24-.95.37-1.53.37-.57 0-1.12-.13-1.52-.37zm-48.77-28.15c-.4-.24-.63-.55-.63-.88 0-.33.23-.65.63-.88.4-.24.96-.37 1.53-.37.57 0 1.12.13 1.52.37.4.23.63.55.63.88 0 .33-.22.64-.63.88-.4.23-.95.36-1.52.36-.57 0-1.12-.13-1.53-.36zm0 56.31c-.4-.24-.63-.56-.63-.88 0-.34.23-.65.63-.88.4-.24.96-.37 1.53-.37.57 0 1.12.13 1.52.37.4.23.63.54.63.88 0 .32-.22.64-.63.88-.4.23-.95.36-1.52.36-.57 0-1.12-.13-1.53-.37zm-48.77-28.16c-.4-.23-.63-.55-.63-.88 0-.33.23-.64.63-.88.4-.23.96-.36 1.53-.36.57 0 1.12.13 1.52.36.4.24.63.55.63.88 0 .33-.22.65-.63.88-.4.24-.95.37-1.52.37-.57 0-1.12-.13-1.53-.37zm85.35-7.03c-.4-.24-.63-.56-.63-.89 0-.33.22-.64.63-.88.4-.23.95-.36 1.52-.36.57 0 1.12.13 1.53.36.4.24.63.55.63.88 0 .33-.23.65-.63.88-.4.24-.96.37-1.53.37-.57 0-1.12-.13-1.52-.37zm-48.76-28.16c-.41-.23-.64-.55-.64-.88 0-.33.23-.65.63-.88.4-.23.95-.36 1.53-.36.57 0 1.12.13 1.52.36.4.23.63.55.63.88 0 .33-.23.65-.63.88-.4.23-.95.36-1.52.36-.58 0-1.13-.13-1.53-.36zm0 56.31c-.41-.24-.64-.55-.64-.88 0-.33.23-.65.63-.88.4-.24.95-.37 1.53-.37.57 0 1.12.13 1.52.37.4.23.63.55.63.88 0 .33-.23.64-.63.88-.4.23-.95.36-1.52.36-.58 0-1.13-.13-1.53-.36zm-48.78-28.15c-.4-.24-.63-.56-.63-.89 0-.33.23-.64.63-.88.4-.23.95-.36 1.53-.36.57 0 1.12.13 1.52.36.4.24.63.55.63.88 0 .33-.23.65-.63.88-.4.24-.95.37-1.52.37-.58 0-1.12-.13-1.53-.37zm121.92 28.15c-.4-.24-.63-.55-.63-.88 0-.33.23-.65.63-.88.4-.24.95-.37 1.53-.37.57 0 1.12.13 1.52.37.4.23.63.55.63.88 0 .33-.23.64-.63.88-.4.23-.95.36-1.52.36-.58 0-1.12-.13-1.53-.36zm-48.76-28.15c-.4-.24-.64-.56-.64-.89 0-.33.23-.64.64-.88.4-.23.95-.36 1.52-.36.57 0 1.12.13 1.52.36.4.24.63.55.63.88 0 .33-.22.65-.63.88-.4.24-.95.37-1.52.37-.57 0-1.12-.13-1.52-.37zm0 56.3c-.4-.23-.64-.55-.64-.88 0-.33.23-.64.64-.88.4-.23.95-.36 1.52-.36.57 0 1.12.13 1.52.36.4.24.63.55.63.88 0 .33-.22.65-.63.88-.4.23-.95.37-1.52.37-.57 0-1.12-.14-1.52-.37zm-48.78-28.15c-.4-.24-.62-.55-.62-.88 0-.33.22-.65.63-.88.4-.24.95-.37 1.52-.37.57 0 1.12.13 1.52.37.4.23.64.55.64.88 0 .33-.23.64-.63.88-.4.23-.96.36-1.53.36-.57 0-1.12-.13-1.52-.36zm85.35-7.05c-.4-.23-.63-.54-.63-.87 0-.33.23-.65.63-.88.4-.23.95-.37 1.52-.37.58 0 1.13.14 1.53.37.4.23.63.55.63.88 0 .33-.23.64-.63.88-.4.23-.95.36-1.53.36-.57 0-1.12-.13-1.52-.36zm-48.77-28.15c-.4-.23-.63-.54-.63-.88 0-.33.23-.64.63-.88.4-.23.96-.36 1.53-.36.57 0 1.12.13 1.52.37.4.23.63.54.63.88 0 .33-.22.64-.63.88-.4.23-.95.36-1.52.36-.57 0-1.12-.13-1.53-.37zm0 56.31c-.4-.23-.63-.55-.63-.88 0-.33.23-.64.63-.88.4-.23.96-.36 1.53-.36.57 0 1.12.13 1.52.36.4.24.63.55.63.88 0 .33-.22.65-.63.88-.4.24-.95.37-1.52.37-.57 0-1.12-.13-1.53-.37zm-48.77-28.16c-.4-.23-.63-.54-.63-.87 0-.33.23-.65.63-.88.4-.23.96-.37 1.53-.37.57 0 1.12.14 1.52.37.4.23.63.55.63.88 0 .33-.22.64-.63.88-.4.23-.95.36-1.52.36-.57 0-1.12-.13-1.53-.36zm85.35-7.03c-.4-.23-.63-.55-.63-.88 0-.33.22-.65.63-.88.4-.23.95-.36 1.52-.36.57 0 1.12.13 1.53.36.4.23.63.55.63.88 0 .33-.23.65-.63.88-.4.23-.96.36-1.53.36-.57 0-1.12-.13-1.52-.36zm-48.76-28.15c-.41-.24-.64-.55-.64-.88 0-.33.23-.65.63-.88.4-.24.95-.37 1.53-.37.57 0 1.12.13 1.52.37.4.23.63.55.63.88 0 .33-.23.64-.63.88-.4.23-.95.36-1.52.36-.58 0-1.13-.13-1.53-.36zm0 56.3c-.41-.23-.64-.55-.64-.88 0-.33.23-.64.63-.88.4-.23.95-.36 1.53-.36.57 0 1.12.13 1.52.36.4.24.63.55.63.88 0 .33-.23.65-.63.88-.4.24-.95.37-1.52.37-.58 0-1.13-.13-1.53-.37zm-48.78-28.15c-.4-.23-.63-.55-.63-.88 0-.33.23-.65.63-.88.4-.23.95-.36 1.53-.36.57 0 1.12.13 1.52.36.4.23.63.55.63.88 0 .33-.23.65-.63.88-.4.23-.95.36-1.52.36-.58 0-1.12-.13-1.53-.36zm85.35-7.04c-.4-.23-.63-.55-.63-.88 0-.33.22-.64.63-.88.4-.23.95-.36 1.52-.36.57 0 1.12.13 1.52.36.4.24.64.55.64.88 0 .33-.23.65-.64.88-.4.24-.95.37-1.52.37-.57 0-1.12-.13-1.52-.37zm-48.77-28.15c-.4-.24-.63-.55-.63-.88 0-.33.23-.65.63-.88.4-.24.95-.37 1.52-.37.57 0 1.12.13 1.53.37.4.23.63.55.63.88 0 .33-.23.64-.63.88-.4.23-.95.36-1.53.36-.57 0-1.12-.13-1.52-.36zm0 56.31c-.4-.24-.63-.56-.63-.88 0-.34.23-.65.63-.88.4-.24.95-.37 1.52-.37.57 0 1.12.13 1.53.37.4.23.63.54.63.88 0 .32-.23.64-.63.88-.4.23-.95.36-1.53.36-.57 0-1.12-.13-1.52-.37zm-48.77-28.16c-.4-.23-.63-.55-.63-.88 0-.33.23-.64.63-.88.4-.23.95-.36 1.52-.36.58 0 1.13.13 1.53.36.4.24.63.55.63.88 0 .33-.23.65-.63.88-.4.24-.95.37-1.53.37-.57 0-1.11-.13-1.52-.37zm121.92 28.16c-.4-.24-.63-.55-.63-.88 0-.33.23-.65.63-.88.4-.24.95-.37 1.52-.37.58 0 1.13.13 1.53.37.4.23.63.55.63.88 0 .33-.23.64-.63.88-.4.23-.95.36-1.53.36-.57 0-1.12-.13-1.52-.36zm-48.77-28.16c-.4-.23-.63-.55-.63-.88 0-.33.23-.64.63-.88.4-.23.96-.36 1.53-.36.57 0 1.12.13 1.52.36.4.24.63.55.63.88 0 .33-.22.65-.63.88-.4.24-.95.37-1.52.37-.57 0-1.12-.13-1.53-.37zm0 56.31c-.4-.24-.63-.55-.63-.88 0-.33.23-.65.63-.88.4-.23.95-.37 1.53-.37.57 0 1.12.14 1.52.37.4.23.63.55.63.88 0 .33-.23.64-.63.88-.4.23-.95.36-1.52.36-.58 0-1.12-.13-1.53-.36zm-48.77-28.15c-.4-.24-.63-.56-.63-.88 0-.34.23-.65.63-.88.4-.24.96-.37 1.53-.37.57 0 1.12.13 1.52.37.4.23.63.54.63.88 0 .32-.22.64-.63.88-.4.23-.95.36-1.52.36-.57 0-1.12-.13-1.53-.37zm85.35-7.04c-.4-.24-.63-.55-.63-.88 0-.33.22-.65.63-.88.4-.24.95-.37 1.52-.37.57 0 1.12.13 1.53.37.4.23.63.55.63.88 0 .33-.23.64-.63.88-.4.23-.96.36-1.53.36-.57 0-1.12-.13-1.52-.36zM356.1 586.8c-.41-.24-.64-.56-.64-.89 0-.33.23-.64.63-.88.4-.23.95-.36 1.53-.36.57 0 1.12.13 1.52.36.4.24.63.55.63.88 0 .33-.23.65-.63.88-.4.24-.95.37-1.52.37-.58 0-1.13-.13-1.53-.37zm0 56.3c-.41-.23-.64-.55-.64-.88 0-.33.23-.64.63-.88.4-.23.95-.36 1.53-.36.57 0 1.12.13 1.52.36.4.24.63.55.63.88 0 .33-.23.65-.63.88-.4.23-.95.37-1.52.37-.58 0-1.13-.14-1.53-.37zm-48.78-28.15c-.4-.24-.63-.55-.63-.88 0-.33.23-.65.63-.88.4-.24.95-.37 1.53-.37.57 0 1.12.13 1.52.37.4.23.63.55.63.88 0 .33-.23.64-.63.88-.4.23-.95.36-1.52.36-.58 0-1.12-.13-1.53-.36zm85.35-7.05c-.4-.23-.63-.54-.63-.87 0-.33.22-.65.63-.88.4-.23.95-.37 1.52-.37.57 0 1.12.14 1.52.37.4.23.64.55.64.88 0 .33-.23.64-.64.88-.4.23-.95.36-1.52.36-.57 0-1.12-.13-1.52-.36zm-48.77-28.15c-.4-.23-.63-.54-.63-.88 0-.33.23-.64.63-.88.4-.23.95-.36 1.52-.36.57 0 1.12.13 1.53.37.4.23.63.54.63.88 0 .33-.23.64-.63.88-.4.23-.95.36-1.53.36-.57 0-1.12-.13-1.52-.37zm0 56.31c-.4-.23-.63-.55-.63-.88 0-.33.23-.64.63-.88.4-.23.95-.36 1.52-.36.57 0 1.12.13 1.53.36.4.24.63.55.63.88 0 .33-.23.65-.63.88-.4.24-.95.37-1.53.37-.57 0-1.12-.13-1.52-.37zm-48.77-28.16c-.4-.23-.63-.54-.63-.87 0-.33.23-.65.63-.88.4-.23.95-.37 1.52-.37.58 0 1.13.14 1.53.37.4.23.63.55.63.88 0 .33-.23.64-.63.88-.4.23-.95.36-1.53.36-.57 0-1.11-.13-1.52-.36zm85.35-7.03c-.4-.23-.64-.55-.64-.88 0-.33.23-.65.64-.88.4-.23.95-.36 1.52-.36.57 0 1.12.13 1.52.36.4.23.63.55.63.88 0 .33-.22.65-.63.88-.4.23-.95.36-1.52.36-.57 0-1.12-.13-1.52-.36zm-48.78-28.15c-.4-.24-.62-.55-.62-.88 0-.33.22-.65.63-.88.4-.24.95-.37 1.52-.37.57 0 1.12.13 1.52.37.4.23.64.55.64.88 0 .33-.23.64-.63.88-.4.23-.96.36-1.53.36-.57 0-1.12-.13-1.52-.36zm0 56.3c-.4-.23-.62-.55-.62-.88 0-.33.22-.64.63-.88.4-.23.95-.36 1.52-.36.57 0 1.12.13 1.52.36.4.24.64.55.64.88 0 .33-.23.65-.63.88-.4.24-.96.37-1.53.37-.57 0-1.12-.13-1.52-.37zm-48.76-28.15c-.4-.23-.63-.55-.63-.88 0-.33.23-.65.63-.88.4-.23.95-.36 1.52-.36.58 0 1.12.13 1.53.36.4.23.63.55.63.88 0 .33-.23.65-.63.88-.4.23-.95.36-1.53.36-.57 0-1.12-.13-1.52-.36zm121.92 28.15c-.4-.23-.63-.55-.63-.88 0-.33.22-.64.63-.88.4-.23.95-.36 1.52-.36.57 0 1.12.13 1.53.36.4.24.63.55.63.88 0 .33-.23.65-.63.88-.4.24-.96.37-1.53.37-.57 0-1.12-.13-1.52-.37zm-48.76-28.15c-.41-.23-.64-.55-.64-.88 0-.33.23-.65.63-.88.4-.23.95-.36 1.53-.36.57 0 1.12.13 1.52.36.4.23.63.55.63.88 0 .33-.23.65-.63.88-.4.23-.95.36-1.52.36-.58 0-1.13-.13-1.53-.36zm0 56.31c-.41-.24-.64-.55-.64-.88 0-.33.23-.65.63-.88.4-.24.95-.37 1.53-.37.57 0 1.12.13 1.52.37.4.23.63.55.63.88 0 .33-.23.64-.63.88-.4.23-.95.36-1.52.36-.58 0-1.13-.13-1.53-.36zm-48.78-28.16c-.4-.23-.63-.55-.63-.88 0-.33.23-.64.63-.88.4-.23.95-.36 1.53-.36.57 0 1.12.13 1.52.36.4.24.63.55.63.88 0 .33-.23.65-.63.88-.4.24-.95.37-1.52.37-.58 0-1.12-.13-1.53-.37zm85.35-7.03c-.4-.24-.63-.56-.63-.88 0-.34.22-.65.63-.88.4-.24.95-.37 1.52-.37.57 0 1.12.13 1.52.37.4.23.64.54.64.88 0 .32-.23.64-.64.88-.4.23-.95.36-1.52.36-.57 0-1.12-.13-1.52-.37zm-48.77-28.16c-.4-.23-.63-.55-.63-.88 0-.33.23-.64.63-.88.4-.23.95-.36 1.52-.36.57 0 1.12.13 1.53.36.4.24.63.55.63.88 0 .33-.23.65-.63.88-.4.24-.95.37-1.53.37-.57 0-1.12-.13-1.52-.37zm0 56.31c-.4-.23-.63-.55-.63-.88 0-.33.23-.65.63-.88.4-.23.95-.36 1.52-.36.57 0 1.12.13 1.53.36.4.23.63.55.63.88 0 .33-.23.65-.63.88-.4.23-.95.36-1.53.36-.57 0-1.12-.13-1.52-.36zm-48.77-28.15c-.4-.24-.63-.55-.63-.88 0-.33.23-.65.63-.88.4-.24.95-.37 1.52-.37.58 0 1.13.13 1.53.37.4.23.63.55.63.88 0 .33-.23.64-.63.88-.4.23-.95.36-1.53.36-.57 0-1.11-.13-1.52-.36zm85.35-7.04c-.4-.24-.64-.55-.64-.88 0-.33.23-.65.64-.88.4-.24.95-.37 1.52-.37.57 0 1.12.13 1.52.37.4.23.63.55.63.88 0 .33-.22.64-.63.88-.4.23-.95.36-1.52.36-.57 0-1.12-.13-1.52-.36zM331.7 586.8c-.4-.24-.62-.56-.62-.89 0-.33.22-.64.63-.88.4-.23.95-.36 1.52-.36.57 0 1.12.13 1.52.36.4.24.64.55.64.88 0 .33-.23.65-.63.88-.4.24-.96.37-1.53.37-.57 0-1.12-.13-1.52-.37zm0 56.3c-.4-.23-.62-.55-.62-.88 0-.33.22-.64.63-.88.4-.23.95-.36 1.52-.36.57 0 1.12.13 1.52.36.4.24.64.55.64.88 0 .33-.23.65-.63.88-.4.23-.96.37-1.53.37-.57 0-1.12-.14-1.52-.37zm-48.76-28.15c-.4-.24-.63-.55-.63-.88 0-.33.23-.65.63-.88.4-.24.95-.37 1.52-.37.58 0 1.12.13 1.53.37.4.23.63.55.63.88 0 .33-.23.64-.63.88-.4.23-.95.36-1.53.36-.57 0-1.12-.13-1.52-.36zm85.34-7.05c-.4-.23-.63-.54-.63-.87 0-.33.23-.65.63-.88.4-.23.96-.37 1.53-.37.57 0 1.12.14 1.52.37.4.23.63.55.63.88 0 .33-.22.64-.63.88-.4.23-.95.36-1.52.36-.57 0-1.12-.13-1.53-.36zm-48.77-28.15c-.4-.23-.63-.54-.63-.88 0-.33.23-.64.63-.88.4-.23.96-.36 1.53-.36.57 0 1.12.13 1.52.37.4.23.63.54.63.88 0 .33-.22.64-.63.88-.4.23-.95.36-1.52.36-.57 0-1.12-.13-1.53-.37zm0 56.31c-.4-.23-.63-.55-.63-.88 0-.33.23-.64.63-.88.4-.23.96-.36 1.53-.36.57 0 1.12.13 1.52.36.4.24.63.55.63.88 0 .33-.22.65-.63.88-.4.24-.95.37-1.52.37-.57 0-1.12-.13-1.53-.37zm-48.76-28.16c-.4-.23-.63-.54-.63-.87 0-.33.22-.65.63-.88.4-.23.95-.37 1.52-.37.57 0 1.12.14 1.53.37.4.23.63.55.63.88 0 .33-.23.64-.63.88-.4.23-.96.36-1.53.36-.57 0-1.12-.13-1.52-.36zm296.12-295.8c0 .47-.16.82-.44.99-.29.16-.68.12-1.08-.11-.4-.24-.8-.64-1.08-1.14a3.13 3.13 0 01-.44-1.5c0-.47.16-.82.44-.99.29-.16.68-.12 1.08.1.4.24.8.65 1.08 1.15.28.5.44 1.03.44 1.5zm.01 56.31c0 .47-.17.82-.45.99-.29.16-.67.12-1.08-.1-.4-.24-.8-.65-1.08-1.15a3.13 3.13 0 01-.44-1.5c0-.47.16-.82.44-.99.29-.16.68-.12 1.08.11.4.24.8.64 1.08 1.14.28.5.45 1.03.45 1.5zm48.76-28.15c0 .46-.16.82-.45.98-.28.17-.67.13-1.08-.1-.4-.24-.79-.65-1.07-1.14a3.13 3.13 0 01-.45-1.5c0-.47.16-.82.45-.99.28-.16.67-.13 1.08.1.4.24.79.65 1.07 1.14.29.5.45 1.04.45 1.5zm0 56.31c0 .47-.16.82-.44.99-.3.16-.68.12-1.08-.11-.4-.24-.8-.64-1.08-1.14a3.13 3.13 0 01-.45-1.5c0-.47.16-.82.45-.99.29-.16.67-.13 1.08.1.4.24.79.65 1.08 1.15.28.5.44 1.03.44 1.5zm-48.77-70.39c0 .46-.16.82-.44.99-.29.16-.68.12-1.08-.11-.4-.24-.8-.64-1.08-1.14a3.13 3.13 0 01-.44-1.5c0-.47.16-.82.44-.99.29-.16.68-.13 1.08.1.4.24.8.65 1.08 1.15.28.5.44 1.03.44 1.5zm.01 56.31c0 .47-.16.82-.45.99-.29.16-.67.12-1.08-.11-.4-.24-.79-.64-1.08-1.14a3.13 3.13 0 01-.44-1.5c0-.47.16-.82.44-.99.29-.16.68-.12 1.08.1.4.24.8.65 1.08 1.15.29.5.45 1.03.45 1.5zm48.76-28.16c0 .47-.16.83-.45 1-.28.16-.67.12-1.08-.12-.4-.23-.79-.64-1.07-1.13a3.13 3.13 0 01-.45-1.5c0-.47.16-.83.45-1 .28-.16.67-.12 1.08.12.4.23.79.64 1.07 1.13.29.5.45 1.04.45 1.5zm0 56.32c0 .46-.16.82-.44.98-.3.17-.68.13-1.08-.1-.4-.24-.8-.65-1.08-1.14a3.13 3.13 0 01-.45-1.5c0-.47.16-.83.45-1 .29-.16.67-.12 1.08.12.4.23.79.64 1.08 1.13.28.5.44 1.04.44 1.5zm-48.77-70.4c0 .47-.16.83-.44 1-.29.16-.68.12-1.08-.12-.4-.23-.8-.64-1.08-1.13a3.13 3.13 0 01-.44-1.5c0-.47.16-.83.44-1 .29-.16.68-.12 1.08.12.4.23.8.64 1.08 1.13.28.5.44 1.04.44 1.5zm.01 56.32c0 .46-.16.82-.45.98-.29.17-.67.13-1.08-.1-.4-.24-.79-.65-1.08-1.14a3.13 3.13 0 01-.44-1.5c0-.47.16-.82.44-.99.29-.17.68-.13 1.08.1.4.24.8.65 1.08 1.14.29.5.45 1.04.45 1.5zm48.76-28.16c0 .47-.16.82-.45.99-.28.17-.67.13-1.07-.1-.4-.24-.8-.65-1.08-1.15a3.13 3.13 0 01-.45-1.5c0-.46.16-.82.45-.98.28-.17.67-.13 1.08.1.4.24.79.65 1.07 1.14.29.5.45 1.04.45 1.5zm0 56.31c0 .47-.16.83-.44 1-.29.16-.68.12-1.08-.12-.4-.23-.8-.64-1.08-1.13a3.13 3.13 0 01-.45-1.5c0-.47.16-.83.45-1 .29-.16.67-.12 1.08.11.4.24.79.65 1.08 1.14.28.5.44 1.04.44 1.5zm-48.77-70.39c0 .47-.16.82-.44.99-.29.17-.68.13-1.08-.1-.4-.24-.8-.65-1.08-1.15a3.13 3.13 0 01-.44-1.5c0-.46.16-.82.44-.98.29-.17.68-.13 1.08.1.4.24.8.65 1.08 1.14.28.5.44 1.04.44 1.5zm.01 56.31c0 .47-.16.83-.45 1-.29.16-.67.12-1.08-.12-.4-.23-.79-.64-1.08-1.13a3.13 3.13 0 01-.44-1.5c0-.47.16-.83.44-1 .29-.16.68-.12 1.08.11.4.24.8.65 1.08 1.14.29.5.45 1.04.45 1.5zm48.76-28.14c0 .46-.16.81-.45.98-.28.16-.67.12-1.07-.1-.4-.24-.8-.65-1.08-1.15a3.13 3.13 0 01-.45-1.5c0-.47.16-.82.45-.99.28-.16.67-.12 1.08.11.4.23.79.64 1.07 1.14.29.5.45 1.03.45 1.5zm0 56.3c0 .47-.16.82-.44.99-.29.16-.68.13-1.08-.1-.4-.24-.8-.65-1.08-1.15a3.13 3.13 0 01-.45-1.5c0-.47.16-.82.45-.99.29-.16.67-.12 1.08.11.4.24.79.64 1.08 1.14.28.5.44 1.03.44 1.5zm-36.58-119.66c0 .47-.16.82-.44.99-.29.16-.68.12-1.08-.11-.4-.23-.8-.64-1.08-1.14a3.13 3.13 0 01-.44-1.5c0-.47.16-.82.44-.99.29-.16.68-.12 1.08.11.4.23.8.64 1.08 1.14.28.5.44 1.03.44 1.5zm.01 56.31c0 .47-.17.82-.45.99-.29.16-.67.12-1.08-.11-.4-.23-.79-.64-1.08-1.14a3.13 3.13 0 01-.44-1.5c0-.47.16-.82.44-.99.29-.16.68-.12 1.08.11.4.23.8.64 1.08 1.14.28.5.45 1.03.45 1.5zm48.76-28.15c0 .46-.16.82-.45.98-.28.17-.67.13-1.07-.1-.4-.24-.8-.65-1.08-1.14a3.13 3.13 0 01-.45-1.5c0-.47.16-.83.45-.99.28-.17.67-.13 1.08.1.4.24.79.65 1.07 1.15.29.49.45 1.03.45 1.5zm0 56.3c0 .47-.16.83-.44 1-.29.16-.68.12-1.08-.11-.4-.24-.8-.64-1.08-1.14a3.13 3.13 0 01-.45-1.5c0-.47.17-.82.45-.99.29-.16.67-.13 1.08.1.4.24.79.65 1.08 1.15.28.5.44 1.03.44 1.5zm-48.76-70.38c0 .46-.17.82-.45.98-.29.17-.67.13-1.08-.1-.4-.24-.8-.65-1.08-1.14a3.13 3.13 0 01-.44-1.5c0-.47.16-.82.44-.99.29-.17.68-.13 1.08.1.4.24.8.65 1.08 1.14.28.5.45 1.04.45 1.5zm0 56.31c0 .47-.16.82-.45.99-.28.16-.67.12-1.08-.11-.4-.24-.79-.65-1.07-1.14a3.13 3.13 0 01-.45-1.5c0-.47.16-.82.45-.99.28-.16.67-.13 1.07.1.4.24.8.65 1.08 1.15.29.5.45 1.03.45 1.5zm48.76-28.16c0 .47-.16.83-.45 1-.28.16-.67.12-1.07-.12-.4-.23-.8-.64-1.08-1.13a3.13 3.13 0 01-.45-1.5c0-.47.16-.83.45-1 .28-.16.67-.12 1.08.11.4.24.79.65 1.08 1.14.28.5.44 1.04.44 1.5zm0 56.32c0 .46-.16.82-.44.98-.29.17-.68.13-1.08-.1-.4-.24-.8-.65-1.08-1.14a3.13 3.13 0 01-.45-1.5c0-.47.17-.83.45-1 .29-.16.67-.12 1.08.12.4.23.8.64 1.08 1.13.28.5.44 1.04.44 1.5zm-48.76-70.39c0 .46-.17.82-.45.98-.29.17-.67.13-1.08-.1-.4-.24-.8-.65-1.08-1.14a3.13 3.13 0 01-.44-1.5c0-.47.16-.83.44-1 .29-.16.68-.12 1.08.11.4.24.8.65 1.08 1.14.28.5.45 1.04.45 1.5zm0 56.3c0 .47-.16.83-.45 1-.28.16-.67.12-1.08-.11-.4-.24-.79-.65-1.07-1.14a3.13 3.13 0 01-.45-1.5c0-.47.16-.83.45-1 .28-.16.67-.12 1.07.12.4.23.8.64 1.08 1.13.29.5.45 1.04.45 1.5zm48.76-28.15c0 .47-.16.82-.45.99-.28.16-.67.13-1.07-.1-.4-.24-.8-.65-1.08-1.15a3.13 3.13 0 01-.45-1.5c0-.46.16-.82.45-.99.28-.16.67-.12 1.08.11.4.24.79.64 1.08 1.14.28.5.44 1.04.44 1.5zm0 56.31c0 .47-.16.83-.44 1-.29.16-.68.12-1.08-.12-.4-.23-.8-.64-1.08-1.13a3.13 3.13 0 01-.45-1.5c0-.47.17-.83.45-1 .29-.16.67-.12 1.08.11.4.24.8.65 1.08 1.14.28.5.44 1.04.44 1.5zm-48.76-70.39c0 .47-.17.82-.45.99-.29.16-.67.13-1.08-.1-.4-.24-.79-.65-1.08-1.14a3.13 3.13 0 01-.44-1.5c0-.47.16-.83.44-1 .29-.16.68-.12 1.08.11.4.24.8.65 1.08 1.14.28.5.45 1.04.45 1.5zm0 56.31c0 .47-.16.83-.45 1-.28.16-.67.12-1.08-.12-.4-.23-.79-.64-1.07-1.13a3.13 3.13 0 01-.45-1.5c0-.47.16-.83.45-1 .28-.16.67-.12 1.07.11.4.24.8.65 1.08 1.14.29.5.45 1.04.45 1.5zm48.76-28.15c0 .47-.16.82-.44.99-.29.16-.68.12-1.08-.11-.4-.23-.8-.64-1.08-1.14a3.13 3.13 0 01-.45-1.5c0-.47.17-.82.45-.99.29-.16.67-.12 1.08.11.4.23.79.64 1.08 1.14.28.5.44 1.03.44 1.5zm0 56.31c0 .47-.16.82-.44.99-.29.16-.68.12-1.08-.1-.4-.24-.8-.65-1.08-1.15a3.13 3.13 0 01-.44-1.5c0-.47.16-.82.44-.99.29-.16.68-.12 1.08.11.4.24.8.64 1.08 1.14.28.5.44 1.03.44 1.5zm-36.57-119.66c0 .46-.16.82-.45.99-.29.16-.67.12-1.08-.11-.4-.24-.79-.64-1.08-1.14a3.13 3.13 0 01-.44-1.5c0-.47.16-.82.44-.99.29-.16.68-.13 1.08.1.4.24.8.65 1.08 1.15.29.5.45 1.03.45 1.5zm0 56.31c0 .47-.16.82-.45.99-.28.16-.67.12-1.08-.11-.4-.23-.79-.64-1.07-1.14a3.13 3.13 0 01-.45-1.5c0-.47.16-.82.45-.99.28-.16.67-.12 1.07.11.4.23.8.64 1.08 1.14.29.5.45 1.03.45 1.5zm48.76-28.15c0 .46-.16.82-.44.98-.29.17-.68.13-1.08-.1-.4-.24-.8-.65-1.08-1.14a3.13 3.13 0 01-.45-1.5c0-.47.16-.83.45-1 .29-.16.67-.12 1.08.12.4.23.79.64 1.08 1.13.28.5.44 1.04.44 1.5zm0 56.31c0 .46-.16.82-.44.98-.29.17-.68.13-1.08-.1-.4-.24-.8-.65-1.08-1.14a3.13 3.13 0 01-.44-1.5c0-.47.16-.82.44-.99.29-.16.68-.13 1.08.1.4.24.8.65 1.08 1.14.28.5.44 1.04.44 1.5zm-48.76-70.39c0 .46-.16.82-.45.98-.29.17-.67.13-1.08-.1-.4-.24-.79-.65-1.08-1.14a3.13 3.13 0 01-.44-1.5c0-.47.16-.83.44-1 .29-.16.68-.12 1.08.12.4.23.8.64 1.08 1.13.29.5.45 1.04.45 1.5zm0 56.31c0 .46-.16.82-.45.98-.28.17-.67.13-1.08-.1-.4-.24-.79-.65-1.07-1.14a3.13 3.13 0 01-.45-1.5c0-.47.16-.82.45-.99.28-.17.67-.13 1.07.1.4.24.8.65 1.08 1.14.29.5.45 1.04.45 1.5zm48.76-28.16c0 .47-.16.83-.44 1-.29.16-.68.12-1.08-.12-.4-.23-.8-.64-1.08-1.13a3.13 3.13 0 01-.45-1.5c0-.47.16-.83.45-1 .29-.16.67-.12 1.08.11.4.24.79.65 1.08 1.14.28.5.44 1.04.44 1.5zm0 56.32c0 .46-.16.82-.44.98-.29.17-.68.13-1.08-.1-.4-.24-.8-.65-1.08-1.14a3.13 3.13 0 01-.44-1.5c0-.47.16-.83.44-1 .29-.16.68-.12 1.08.11.4.24.8.65 1.08 1.14.28.5.44 1.04.44 1.5zm-48.76-70.4c0 .47-.16.83-.45 1-.28.16-.67.12-1.08-.12-.4-.23-.79-.64-1.08-1.13a3.13 3.13 0 01-.44-1.5c0-.47.16-.83.44-1 .3-.16.68-.12 1.08.11.4.24.8.65 1.08 1.14.29.5.45 1.04.45 1.5zm0 56.31c0 .47-.16.83-.45 1-.28.16-.67.12-1.07-.12-.4-.23-.8-.64-1.08-1.13a3.13 3.13 0 01-.45-1.5c0-.47.16-.83.45-1 .28-.16.67-.12 1.08.12.4.23.79.64 1.07 1.13.29.5.45 1.04.45 1.5zm48.76-28.14c0 .46-.16.81-.44.98-.29.16-.68.13-1.08-.1-.4-.24-.8-.65-1.08-1.15a3.13 3.13 0 01-.44-1.5c0-.47.16-.82.44-.99.29-.16.68-.12 1.08.11.4.24.8.64 1.08 1.14.28.5.44 1.03.44 1.5zm0 56.3c0 .47-.16.82-.44.99-.29.16-.68.13-1.08-.1-.4-.24-.8-.65-1.08-1.14a3.13 3.13 0 01-.44-1.5c0-.47.16-.83.44-1 .29-.16.68-.12 1.08.11.4.24.8.65 1.08 1.14.28.5.44 1.04.44 1.5zm-48.76-70.39c0 .47-.16.82-.45.99-.28.16-.67.13-1.08-.1-.4-.24-.79-.65-1.08-1.15a3.13 3.13 0 01-.44-1.5c0-.46.16-.82.44-.98.3-.17.68-.13 1.08.1.4.24.8.65 1.08 1.14.29.5.45 1.03.45 1.5zm0 56.31c0 .47-.16.82-.45.99-.28.17-.67.13-1.07-.1-.4-.24-.8-.65-1.08-1.15a3.13 3.13 0 01-.45-1.5c0-.46.16-.82.45-.98.28-.17.67-.13 1.08.1.4.24.79.65 1.07 1.14.29.5.45 1.04.45 1.5zm48.76-28.15c0 .47-.16.82-.44.99-.29.16-.68.12-1.08-.11-.4-.24-.8-.64-1.08-1.14a3.13 3.13 0 01-.44-1.5c0-.47.16-.82.44-.99.29-.16.68-.12 1.08.1.4.24.8.65 1.08 1.15.28.5.44 1.03.44 1.5zm0 56.31c0 .47-.16.82-.44.99-.29.16-.68.12-1.08-.1-.4-.24-.8-.65-1.08-1.15a3.13 3.13 0 01-.44-1.5c0-.47.16-.82.44-.99.29-.16.68-.12 1.08.11.4.24.8.64 1.08 1.14.28.5.44 1.03.44 1.5zm-36.57-119.66c0 .46-.16.82-.45.98-.28.17-.67.13-1.08-.1-.4-.24-.79-.65-1.07-1.14a3.13 3.13 0 01-.45-1.5c0-.47.16-.82.45-.99.28-.16.67-.13 1.07.1.4.24.8.65 1.08 1.15.29.5.45 1.03.45 1.5zm0 56.31c0 .47-.16.82-.45.99-.28.16-.67.12-1.08-.11-.4-.24-.79-.64-1.07-1.14a3.13 3.13 0 01-.45-1.5c0-.47.16-.82.45-.99.28-.16.67-.12 1.07.1.4.24.8.65 1.08 1.15.29.5.45 1.03.45 1.5zm48.76-28.15c0 .46-.16.82-.44.98-.29.17-.68.13-1.08-.1-.4-.24-.8-.65-1.08-1.14a3.13 3.13 0 01-.45-1.5c0-.47.17-.83.45-1 .29-.16.67-.12 1.08.12.4.23.8.64 1.08 1.13.28.5.44 1.04.44 1.5zm.01 56.31c0 .46-.17.82-.45.98-.29.17-.67.13-1.08-.1-.4-.24-.8-.65-1.08-1.14a3.13 3.13 0 01-.44-1.5c0-.47.16-.82.44-.99.29-.17.68-.13 1.08.1.4.24.8.65 1.08 1.14.28.5.45 1.04.45 1.5zm-48.77-70.39c0 .46-.16.82-.45.98-.28.17-.67.13-1.08-.1-.4-.24-.79-.65-1.07-1.14a3.13 3.13 0 01-.45-1.5c0-.47.16-.83.45-1 .28-.16.67-.12 1.07.12.4.23.8.64 1.08 1.13.29.5.45 1.04.45 1.5zm0 56.3c0 .47-.16.83-.45 1-.28.16-.67.12-1.07-.11-.4-.24-.8-.65-1.08-1.14a3.13 3.13 0 01-.45-1.5c0-.47.16-.83.45-.99.28-.17.67-.13 1.08.1.4.24.79.65 1.07 1.15.29.49.45 1.03.45 1.5zm48.76-28.15c0 .47-.16.82-.44.99-.29.17-.68.13-1.08-.1-.4-.24-.8-.65-1.08-1.14a3.13 3.13 0 01-.44-1.5c0-.47.16-.83.44-1 .29-.16.68-.12 1.08.11.4.24.8.65 1.08 1.14.28.5.44 1.04.44 1.5zm.01 56.31c0 .47-.17.83-.45 1-.29.16-.67.12-1.08-.12-.4-.23-.79-.64-1.08-1.13a3.13 3.13 0 01-.44-1.5c0-.47.16-.83.44-1 .29-.16.68-.12 1.08.11.4.24.8.65 1.08 1.14.28.5.45 1.04.45 1.5zm-48.77-70.39c0 .47-.16.82-.45.99-.28.16-.67.13-1.08-.1-.4-.24-.79-.65-1.07-1.14a3.13 3.13 0 01-.45-1.5c0-.47.16-.83.45-1 .28-.16.67-.12 1.07.11.4.24.8.65 1.08 1.14.29.5.45 1.04.45 1.5zm0 56.32c0 .46-.16.82-.45.98-.28.17-.67.13-1.07-.1-.4-.24-.8-.65-1.08-1.14a3.13 3.13 0 01-.45-1.5c0-.47.16-.83.45-1 .28-.16.67-.12 1.08.12.4.23.79.64 1.07 1.13.29.5.45 1.04.45 1.5zm48.76-28.16c0 .47-.16.82-.44.99-.29.16-.68.12-1.08-.1-.4-.24-.8-.65-1.08-1.15a3.13 3.13 0 01-.44-1.5c0-.47.16-.82.44-.99.29-.16.68-.12 1.08.11.4.24.8.64 1.08 1.14.28.5.44 1.03.44 1.5zm.01 56.31c0 .47-.17.82-.45.99-.29.16-.67.13-1.08-.1-.4-.24-.79-.65-1.08-1.15a3.13 3.13 0 01-.44-1.5c0-.46.16-.82.44-.98.29-.17.68-.13 1.08.1.4.24.8.65 1.08 1.14.28.5.45 1.04.45 1.5zm-48.77-70.39c0 .47-.16.82-.45.99-.28.16-.67.12-1.08-.1-.4-.24-.79-.65-1.07-1.15a3.13 3.13 0 01-.45-1.5c0-.47.16-.82.45-.99.28-.16.67-.12 1.07.11.4.24.8.64 1.08 1.14.29.5.45 1.03.45 1.5zm0 56.31c0 .47-.16.82-.45.99-.28.16-.67.13-1.07-.1-.4-.24-.8-.65-1.08-1.15a3.13 3.13 0 01-.45-1.5c0-.46.16-.82.45-.99.28-.16.67-.12 1.08.11.4.24.79.64 1.08 1.14.28.5.44 1.04.44 1.5zm48.77-28.16c0 .48-.17.83-.45 1-.29.16-.67.12-1.08-.11-.4-.24-.8-.64-1.08-1.14a3.13 3.13 0 01-.44-1.5c0-.47.16-.82.44-.99.29-.16.68-.12 1.08.1.4.24.8.65 1.08 1.15.28.5.45 1.03.45 1.5zm0 56.32c0 .47-.16.82-.45.99-.28.16-.67.12-1.08-.11-.4-.23-.79-.64-1.08-1.14a3.13 3.13 0 01-.44-1.5c0-.47.16-.82.45-.99.28-.16.67-.12 1.07.11.4.23.8.64 1.08 1.14.29.5.45 1.03.45 1.5zM225.7 276.21c0 .37.13.65.35.78.22.13.53.1.85-.09.31-.18.62-.5.84-.89.23-.39.35-.81.35-1.18 0-.37-.12-.64-.35-.77-.22-.13-.53-.1-.84.08-.32.18-.63.5-.85.9-.22.38-.35.8-.35 1.17zm0 44.21c0 .37.12.65.35.78.22.13.53.1.84-.09.32-.18.63-.5.85-.89.22-.39.35-.81.35-1.18 0-.37-.13-.64-.35-.77-.22-.13-.53-.1-.85.08-.31.18-.62.5-.84.9-.23.38-.35.8-.35 1.17zm-38.29-22.1c0 .37.13.64.35.77.23.13.53.1.85-.08.32-.18.62-.5.85-.9.22-.38.35-.8.35-1.17 0-.37-.13-.65-.35-.78-.23-.13-.53-.1-.85.09-.32.18-.62.5-.85.9-.22.38-.35.8-.35 1.17zm0 44.21c0 .37.13.65.35.77.23.13.53.1.85-.08.31-.18.62-.5.84-.9.23-.38.35-.8.35-1.17 0-.37-.12-.65-.35-.78-.22-.13-.52-.1-.84.09-.32.18-.62.5-.85.9-.22.38-.35.8-.35 1.17zm38.29-55.26c0 .36.13.64.35.77.22.13.53.1.84-.08.32-.19.63-.5.85-.9.22-.38.35-.8.35-1.18 0-.36-.13-.64-.35-.77-.22-.13-.53-.1-.84.08-.32.19-.63.5-.85.9-.23.39-.35.8-.35 1.18zm0 44.21c0 .36.12.64.35.77.22.13.53.1.84-.08.32-.19.63-.5.85-.9.22-.38.35-.8.35-1.18 0-.36-.13-.64-.35-.77-.22-.13-.53-.1-.85.08-.31.19-.62.5-.84.9-.23.38-.35.8-.35 1.18zm-38.29-22.11c0 .37.13.65.35.78.23.13.53.1.85-.09.32-.18.62-.5.84-.9.23-.38.36-.8.36-1.17 0-.37-.13-.64-.35-.77-.23-.13-.53-.1-.85.08-.32.18-.62.5-.85.9-.22.38-.35.8-.35 1.17zm0 44.21c0 .37.13.65.35.78.23.13.53.1.85-.09.31-.18.62-.5.84-.9.23-.38.35-.8.35-1.17 0-.37-.12-.64-.35-.77-.22-.13-.52-.1-.84.08-.32.18-.62.5-.85.9-.22.38-.35.8-.35 1.17zm38.29-55.26c0 .36.13.64.35.77.22.13.53.1.84-.08.32-.19.63-.5.85-.9.22-.38.35-.8.35-1.17 0-.37-.13-.65-.35-.78-.22-.13-.53-.1-.84.08-.32.19-.63.51-.85.9-.23.39-.35.81-.35 1.18zm0 44.21c0 .36.12.64.35.77.22.13.53.1.84-.08.32-.19.63-.5.85-.9.22-.38.35-.8.35-1.17 0-.37-.13-.65-.35-.78-.23-.13-.53-.1-.85.08-.31.19-.62.51-.84.9-.23.39-.35.81-.35 1.18zm-38.29-22.1c0 .36.13.64.35.77.23.13.53.1.85-.08.32-.19.62-.5.84-.9.23-.39.36-.81.36-1.18 0-.36-.13-.64-.35-.77-.23-.13-.53-.1-.85.08-.32.19-.62.5-.85.9-.22.38-.35.8-.35 1.18zm0 44.2c0 .37.13.65.35.78.23.13.53.1.85-.08.31-.19.62-.5.84-.9.23-.39.35-.81.35-1.18 0-.36-.12-.64-.35-.77-.22-.13-.53-.1-.84.08-.32.19-.63.5-.85.9-.22.38-.35.8-.35 1.18zm38.29-55.26c0 .37.13.65.35.77.22.13.53.1.84-.08.32-.18.63-.5.85-.9.22-.38.35-.8.35-1.17 0-.37-.13-.65-.35-.78-.22-.13-.53-.1-.84.09-.32.18-.63.5-.85.9-.23.38-.35.8-.35 1.17zm0 44.21c0 .37.12.65.35.78.22.13.53.1.84-.09.32-.18.63-.5.85-.9.22-.38.35-.8.35-1.17 0-.37-.13-.65-.35-.77-.23-.13-.53-.1-.85.08-.31.18-.62.5-.84.9-.23.38-.35.8-.35 1.17zm-38.29-22.1c0 .36.13.64.35.77.23.13.53.1.85-.08.32-.19.62-.5.84-.9.23-.38.36-.8.36-1.17 0-.37-.13-.65-.35-.78-.23-.13-.53-.1-.85.08-.32.19-.62.5-.85.9-.22.39-.35.81-.35 1.18zm0 44.21c0 .36.13.64.35.77.23.13.53.1.85-.08.31-.19.62-.5.84-.9.23-.38.35-.8.35-1.18 0-.36-.12-.64-.35-.77-.22-.13-.53-.1-.84.08-.32.19-.63.5-.85.9-.22.39-.35.81-.35 1.18zm28.72-93.95c0 .37.12.64.35.77.22.13.53.1.84-.08.32-.18.63-.5.85-.9.22-.38.35-.8.35-1.17 0-.37-.13-.65-.35-.78-.22-.13-.53-.1-.85.09-.31.18-.62.5-.84.9-.23.38-.35.8-.35 1.17zm0 44.21c0 .37.12.65.35.77.22.13.53.1.84-.08.32-.18.63-.5.85-.9.22-.38.35-.8.35-1.17 0-.37-.13-.65-.35-.78-.22-.13-.53-.1-.85.09-.31.18-.62.5-.84.9-.23.38-.35.8-.35 1.17zm-38.29-22.1c0 .36.13.64.35.77.23.13.53.1.85-.08.31-.19.62-.5.84-.9.23-.38.35-.8.35-1.18 0-.36-.12-.64-.35-.77-.22-.13-.53-.1-.84.08-.32.19-.62.5-.85.9-.22.38-.35.8-.35 1.18zm0 44.21c0 .36.13.64.35.77.22.13.53.1.85-.08.31-.19.62-.5.84-.9.23-.39.35-.8.35-1.18 0-.36-.12-.64-.35-.77-.22-.13-.53-.1-.84.08-.32.19-.63.5-.85.9-.22.38-.35.8-.35 1.18zm38.29-55.26c0 .36.12.64.35.77.22.13.53.1.84-.09.32-.18.63-.5.85-.9.22-.38.35-.8.35-1.17 0-.37-.13-.65-.35-.77-.22-.13-.53-.1-.85.08-.31.18-.62.5-.84.9-.23.38-.35.8-.35 1.17zm0 44.2c0 .37.12.65.35.78.22.13.53.1.84-.09.32-.18.62-.5.85-.9.22-.38.35-.8.35-1.17 0-.37-.13-.64-.35-.77-.23-.13-.53-.1-.85.08-.31.18-.62.5-.84.9-.23.38-.35.8-.35 1.17zm-38.29-22.1c0 .36.13.64.35.77.23.13.53.1.85-.08.31-.19.62-.5.84-.9.23-.38.35-.8.35-1.17 0-.37-.12-.65-.35-.78-.22-.13-.53-.1-.84.08-.32.19-.62.51-.85.9-.22.39-.35.81-.35 1.18zm0 44.2c0 .38.13.65.35.78.22.13.53.1.85-.08.31-.18.62-.5.84-.9.23-.38.35-.8.35-1.17 0-.37-.12-.65-.35-.78-.22-.13-.53-.1-.84.09-.32.18-.63.5-.85.89-.22.39-.35.81-.35 1.18zm38.29-55.26c0 .37.12.65.35.78.22.13.53.1.84-.08.32-.19.63-.51.85-.9.22-.39.35-.81.35-1.18 0-.36-.13-.64-.35-.77-.22-.13-.53-.1-.85.08-.31.19-.62.5-.84.9-.23.38-.35.8-.35 1.17zm0 44.22c0 .36.12.64.35.77.22.13.53.1.84-.08.32-.19.62-.5.85-.9.22-.39.35-.81.35-1.18 0-.36-.13-.64-.35-.77-.23-.13-.53-.1-.85.08-.31.19-.62.5-.84.9-.23.38-.35.8-.35 1.18zm-38.29-22.11c0 .37.13.65.35.78.22.13.53.1.85-.09.31-.18.62-.5.84-.9.23-.38.35-.8.35-1.17 0-.37-.12-.65-.35-.77-.22-.13-.53-.1-.84.08-.32.18-.63.5-.85.9-.22.38-.35.8-.35 1.17zm0 44.21c0 .37.13.65.35.77.22.13.53.1.85-.08.31-.18.62-.5.84-.9.23-.38.35-.8.35-1.17 0-.37-.12-.65-.35-.77-.22-.13-.53-.1-.84.08-.32.18-.63.5-.85.9-.22.38-.35.8-.35 1.17zm38.29-55.26c0 .36.12.64.35.77.22.13.53.1.84-.08.32-.19.63-.5.85-.9.22-.38.35-.8.35-1.18 0-.36-.13-.64-.35-.77-.22-.13-.53-.1-.85.08-.31.19-.62.5-.84.9-.23.39-.35.81-.35 1.18zm0 44.2c0 .37.12.65.34.78.23.13.53.1.85-.08.32-.19.62-.5.85-.9.22-.38.35-.8.35-1.17 0-.37-.13-.65-.35-.78-.23-.13-.53-.1-.85.08-.32.19-.62.5-.84.9-.23.39-.35.81-.35 1.18zM177.84 337c0 .37.13.65.35.78.22.13.53.1.85-.08.31-.19.62-.51.84-.9.23-.39.35-.81.35-1.18 0-.36-.12-.64-.35-.77-.22-.13-.53-.1-.84.08-.32.19-.63.5-.85.9-.22.38-.35.8-.35 1.17zm0 44.21c0 .37.13.65.35.78.22.13.53.1.84-.09.32-.18.63-.5.85-.89.22-.39.35-.81.35-1.18 0-.36-.13-.64-.35-.77-.22-.13-.53-.1-.84.08-.32.19-.63.5-.85.9-.22.38-.35.8-.35 1.17zm28.72-93.94c0 .36.12.64.35.77.22.13.53.1.84-.08.32-.19.63-.5.85-.9.22-.38.35-.8.35-1.18 0-.36-.13-.64-.35-.77-.22-.13-.53-.1-.85.08-.31.19-.62.5-.84.9-.23.39-.35.8-.35 1.18zm0 44.21c0 .36.12.64.34.77.23.13.53.1.85-.08.32-.19.62-.5.85-.9.22-.38.35-.8.35-1.18 0-.36-.13-.64-.35-.77-.23-.13-.53-.1-.85.08-.32.19-.62.5-.84.9-.23.38-.35.8-.35 1.18zm-38.29-22.11c0 .37.13.65.35.78.22.13.53.1.85-.09.31-.18.62-.5.84-.89.23-.39.35-.81.35-1.18 0-.37-.12-.64-.35-.77-.22-.13-.53-.1-.84.08-.32.18-.63.5-.85.9-.22.38-.35.8-.35 1.17zm0 44.21c0 .37.13.65.35.78.22.13.53.1.84-.09.32-.18.63-.5.85-.89.22-.39.35-.81.35-1.18 0-.37-.13-.64-.35-.77-.22-.13-.53-.1-.84.08-.32.18-.63.5-.85.9-.22.38-.35.8-.35 1.17zm38.29-55.26c0 .37.12.64.35.77.22.13.53.1.84-.08.32-.18.62-.5.85-.9.22-.38.35-.8.35-1.17 0-.37-.13-.65-.35-.78-.23-.13-.53-.1-.85.09-.31.18-.62.5-.84.89-.23.39-.35.81-.35 1.18zm0 44.21c0 .37.12.64.34.77.23.13.53.1.85-.08.32-.18.62-.5.85-.9.22-.38.35-.8.35-1.17 0-.37-.13-.65-.35-.78-.23-.13-.53-.1-.85.09-.32.18-.62.5-.84.89-.23.39-.35.81-.35 1.18zm-38.29-22.1c0 .36.13.64.35.77.22.13.53.1.85-.08.31-.19.62-.5.84-.9.23-.39.35-.81.35-1.18 0-.36-.12-.64-.35-.77-.22-.13-.53-.1-.84.08-.32.19-.63.5-.85.9-.22.38-.35.8-.35 1.18zm0 44.21c0 .36.13.64.35.77.22.13.53.1.84-.08.32-.19.63-.5.85-.9.22-.38.35-.8.35-1.18 0-.36-.13-.64-.35-.77-.22-.13-.53-.1-.84.08-.32.19-.63.5-.85.9-.22.39-.35.8-.35 1.18zm38.29-55.27c0 .37.12.65.35.77.22.13.53.1.84-.08.32-.18.62-.5.85-.9.22-.38.35-.8.35-1.17 0-.37-.13-.65-.35-.78-.23-.13-.53-.1-.85.09-.31.18-.62.5-.84.9-.23.38-.35.8-.35 1.17zm-.01 44.21c0 .37.13.65.35.78.23.13.53.1.85-.09.32-.18.62-.5.85-.9.22-.38.35-.8.35-1.17 0-.37-.13-.65-.35-.77-.23-.13-.53-.1-.85.08-.32.18-.62.5-.85.9-.22.38-.35.8-.35 1.17zm-38.28-22.1c0 .36.13.64.35.77.22.13.53.1.85-.08.31-.19.62-.5.84-.9.23-.38.35-.8.35-1.17 0-.37-.12-.65-.35-.78-.22-.13-.53-.1-.84.08-.32.19-.63.51-.85.9-.22.39-.35.81-.35 1.18zm0 44.21c0 .36.12.64.35.77.22.13.53.1.84-.08.32-.19.63-.5.85-.9.22-.38.35-.8.35-1.17 0-.37-.13-.65-.35-.78-.22-.13-.53-.1-.85.09-.31.18-.62.5-.84.89-.23.39-.35.81-.35 1.18zm38.29-55.27c0 .37.12.65.35.78.22.13.53.1.84-.08.32-.19.62-.51.85-.9.22-.39.35-.81.35-1.18 0-.36-.13-.64-.35-.77-.23-.13-.53-.1-.85.08-.31.19-.62.5-.84.9-.23.38-.35.8-.35 1.17zm-.01 44.21c0 .37.13.65.35.78.23.13.53.1.85-.09.32-.18.62-.5.85-.89.22-.39.35-.81.35-1.18 0-.36-.13-.64-.35-.77-.23-.13-.53-.1-.85.08-.32.19-.62.5-.85.9-.22.38-.35.8-.35 1.17zm-38.28-22.1c0 .37.13.65.35.77.22.13.53.1.84-.08.32-.18.63-.5.85-.9.22-.38.35-.8.35-1.17 0-.37-.13-.65-.35-.78-.22-.13-.53-.1-.84.09-.32.18-.63.5-.85.9-.22.38-.35.8-.35 1.17zm0 44.21c0 .37.12.64.35.77.22.13.53.1.84-.08.32-.18.63-.5.85-.9.22-.38.35-.8.35-1.17 0-.37-.13-.65-.35-.78-.22-.13-.53-.1-.85.09-.31.18-.62.5-.84.9-.23.38-.35.8-.35 1.17zm28.72-93.94c0 .36.12.64.34.77.23.13.53.1.85-.09.32-.18.62-.5.85-.89.22-.39.35-.81.35-1.18 0-.37-.13-.64-.35-.77-.23-.13-.53-.1-.85.08-.32.18-.62.5-.84.9-.23.38-.35.8-.35 1.17zm-.01 44.2c0 .37.13.65.35.78.23.13.53.1.85-.09.32-.18.62-.5.84-.89.23-.39.35-.81.35-1.18 0-.37-.12-.64-.34-.77-.23-.13-.53-.1-.85.08-.32.18-.62.5-.85.9-.22.38-.35.8-.35 1.17zm-38.28-22.1c0 .37.13.64.35.77.22.13.53.1.84-.08.32-.18.63-.5.85-.9.22-.38.35-.8.35-1.17 0-.37-.13-.65-.35-.78-.22-.13-.53-.1-.84.09-.32.18-.63.5-.85.89-.23.39-.35.81-.35 1.18zm0 44.21c0 .37.12.64.35.77.22.13.53.1.84-.08.32-.18.63-.5.85-.9.22-.38.35-.8.35-1.17 0-.37-.13-.65-.35-.78-.23-.13-.53-.1-.85.09-.31.18-.62.5-.84.9-.23.38-.35.8-.35 1.17zm38.29-55.26c0 .36.12.64.34.77.23.13.53.1.85-.08.32-.19.62-.5.85-.9.22-.39.35-.81.35-1.18 0-.36-.13-.64-.35-.77-.23-.13-.53-.1-.85.08-.32.19-.62.5-.84.9-.23.38-.35.8-.35 1.18zm-.01 44.21c0 .36.13.64.35.77.23.13.53.1.85-.08.32-.19.62-.5.84-.9.23-.39.35-.81.35-1.18 0-.36-.12-.64-.34-.77-.23-.13-.53-.1-.85.08-.32.19-.62.5-.85.9-.22.38-.35.8-.35 1.18zm-38.28-22.11c0 .37.13.65.35.78.22.13.53.1.84-.09.32-.18.63-.5.85-.9.22-.38.35-.8.35-1.17 0-.37-.13-.64-.35-.77-.22-.13-.53-.1-.84.08-.32.18-.63.5-.85.9-.23.38-.35.8-.35 1.17zm0 44.21c0 .37.12.65.35.78.22.13.53.1.84-.09.32-.18.63-.5.85-.9.22-.38.35-.8.35-1.17 0-.37-.13-.64-.35-.77-.23-.13-.53-.1-.85.08-.31.18-.62.5-.84.9-.23.38-.35.8-.35 1.17zm38.28-55.26c0 .36.13.64.35.77.23.13.53.1.85-.08.32-.19.62-.5.85-.9.22-.38.35-.8.35-1.17 0-.37-.13-.65-.35-.78-.23-.13-.53-.1-.85.08-.32.19-.62.51-.85.9-.22.39-.35.81-.35 1.18zm0 44.2c0 .37.13.65.35.78.23.13.53.1.85-.08.32-.19.62-.5.84-.9.23-.38.35-.8.35-1.17 0-.37-.12-.65-.34-.78-.23-.13-.53-.1-.85.09-.32.18-.62.5-.85.89-.22.39-.35.81-.35 1.18zM158.7 337c0 .37.12.65.35.78.22.13.53.1.84-.08.32-.19.63-.5.85-.9.22-.39.35-.81.35-1.18 0-.36-.13-.64-.35-.77-.22-.13-.53-.1-.85.08-.31.19-.62.5-.84.9-.23.38-.35.8-.35 1.18zm0 44.21c0 .37.12.65.35.78.22.13.53.1.84-.08.32-.19.63-.5.85-.9.22-.39.35-.81.35-1.18 0-.36-.13-.64-.35-.77-.23-.13-.53-.1-.85.08-.31.19-.62.5-.84.9-.23.38-.35.8-.35 1.17zm38.28-55.26c0 .37.13.65.35.78.23.13.53.1.85-.09.32-.18.62-.5.85-.9.22-.38.35-.8.35-1.17 0-.37-.13-.65-.35-.77-.23-.13-.53-.1-.85.08-.32.18-.62.5-.85.9-.22.38-.35.8-.35 1.17zm0 44.21c0 .37.13.64.35.77.23.13.53.1.85-.08.31-.18.62-.5.84-.9.23-.38.35-.8.35-1.17 0-.37-.12-.65-.35-.78-.22-.13-.53-.1-.84.09-.32.18-.62.5-.85.9-.22.38-.35.8-.35 1.17zm-38.28-22.1c0 .36.12.64.35.77.22.13.53.1.84-.08.32-.19.63-.5.85-.9.22-.38.35-.8.35-1.18 0-.36-.13-.64-.35-.77-.22-.13-.53-.1-.85.08-.31.19-.62.5-.84.9-.23.39-.35.81-.35 1.18zm0 44.21c0 .36.12.64.35.77.22.13.52.1.84-.08.32-.19.62-.5.85-.9.22-.38.35-.8.35-1.18 0-.36-.13-.64-.35-.77-.23-.13-.53-.1-.85.08-.31.19-.62.5-.84.9-.23.39-.35.81-.35 1.18z" fill="#002a5e" fill-opacity="0.6"></path><path d="M395.57 201.92l.87.5-.87-.5zm-133.1 76.14c0 .39.54.7 1.22.7h11.02c.68 0 1.23-.31 1.23-.7 0-.4-.55-.71-1.23-.71h-9.8v-5.66c0-.39-.55-.7-1.22-.7-.68 0-1.23.31-1.23.7v6.37zm194.1-111.15c.47-.28.46-.72-.02-1a1.91 1.91 0 00-1.74.01l1.75 1zM264.56 278.56l131.88-76.14-1.73-1-131.89 76.14 1.74 1zm131.89-76.15l60.12-35.5-1.76-.99-60.11 35.5 1.75 1z" fill="url(#image-top_svg__j)"></path><path d="M179.8 416.92l-.86.5h-.01l.88-.5zm133.11 76.13c0 .4-.55.71-1.22.71h-11.02c-.68 0-1.23-.31-1.23-.7 0-.4.55-.71 1.23-.71h9.8v-5.66c0-.39.54-.7 1.22-.7.68 0 1.22.31 1.22.7v6.37zm-2.09.5l-131.88-76.13 1.73-1 131.89 76.13-1.74 1zm-131.9-76.14l-60.1-35.5 1.74-.99 60.12 35.5-1.75 1z" fill="url(#image-top_svg__k)"></path><path d="M494.82 597.56c-.48.27-.47.72 0 1 .49.27 1.26.27 1.74 0l-1.74-1zm194.1-111.14c0-.4-.56-.71-1.24-.7l-11.02.01c-.67 0-1.22.32-1.22.71 0 .4.55.71 1.23.7l9.8-.01.03 5.65c0 .4.56.71 1.23.7.68 0 1.23-.31 1.22-.7l-.04-6.36zM496.55 598.55l192-111.63-1.74-1-192 111.64 1.74 1z" fill="url(#image-top_svg__l)"></path><path d="M284.72 98.22l1.3-.75c1.05-.61 1.69-.21 1.69 1.55v4.29c0 3.49 1.94 4.25 4.96 2.51l1.1-.64v-2.4l-.69.4c-2.07 1.2-3.04.7-3.04-1.86v-3.64c0-2.24-.86-2.7-1.89-2.63a6.67 6.67 0 001.89-4.8V86.6c0-2.56.97-4.17 3.05-5.37l.69-.4v-2.4l-1.11.64a9.5 9.5 0 00-4.96 8.24v4.29c0 1.76-.64 2.9-1.7 3.5l-1.3.75v2.37z" fill="#002A5D"></path><path d="M662.65 305.72l10.06 11.04v-2.16l-8.42-9.13 8.42.59v-2.19l-10.06-.57v2.42zm11.77 16.18l1.92 1.1 6.02-16.58-1.9-1.1-6.04 16.58zm19.71 2v-2.43l-10.05-11.04v2.19l8.41 9.13-8.41-.59v2.16l10.05.58zM200.8 578.7l-2.9-1.68-15.3 3.55 2.47 1.43 12.18-2.93-5.05 7.05 2.47 1.42 6.13-8.84zm9.1 5.1l7.35-4.25-2.1-1.21-7.36 4.24 2.1 1.22z" opacity="0.9" fill="#002A5D"></path><defs><radialGradient id="image-top_svg__a" cx="0" cy="0" r="1" gradientUnits="userSpaceOnUse" gradientTransform="matrix(111.69937 -136.54337 134.38157 109.9309 513.5 531)"><stop stop-color="#006AE4" stop-opacity="0.59"></stop><stop offset="0.65" stop-color="#0065DF" stop-opacity="0.32"></stop><stop offset="1" stop-color="#0069E3" stop-opacity="0"></stop></radialGradient><radialGradient id="image-top_svg__b" cx="0" cy="0" r="1" gradientUnits="userSpaceOnUse" gradientTransform="matrix(136.00002 96.49987 -95.40847 134.4619 218.5 301)"><stop offset="0.21" stop-color="#F8B201" stop-opacity="0.35"></stop><stop offset="1" stop-color="#F2B801" stop-opacity="0"></stop></radialGradient><radialGradient id="image-top_svg__c" cx="0" cy="0" r="1" gradientUnits="userSpaceOnUse" gradientTransform="matrix(137.50037 -164.00021 162.145 135.94492 407.5 267)"><stop offset="0.21" stop-color="#7536E1" stop-opacity="0.25"></stop><stop offset="1" stop-color="#9D68F8" stop-opacity="0"></stop></radialGradient><radialGradient id="image-top_svg__d" cx="0" cy="0" r="1" gradientUnits="userSpaceOnUse" gradientTransform="matrix(148.14947 108.98593 -109.58384 148.96224 541.475 185.984)"><stop offset="0.21" stop-color="#00C9DD" stop-opacity="0.5"></stop><stop offset="1" stop-color="#00C9E0" stop-opacity="0"></stop></radialGradient><radialGradient id="image-top_svg__e" cx="0" cy="0" r="1" gradientUnits="userSpaceOnUse" gradientTransform="rotate(34.92 -296 591.86) scale(226.231 223.672)"><stop stop-color="#7347E7" stop-opacity="0.38"></stop><stop offset="0.81" stop-color="#744AE7" stop-opacity="0"></stop><stop offset="1" stop-color="#744BE7" stop-opacity="0"></stop></radialGradient><radialGradient id="image-top_svg__f" cx="0" cy="0" r="1" gradientUnits="userSpaceOnUse" gradientTransform="matrix(154.17974 -175.87021 175.06863 153.47702 310.985 418.999)"><stop offset="0.21" stop-color="#EBA1A1" stop-opacity="0.97"></stop><stop offset="0.82" stop-color="#EBA0A0" stop-opacity="0.22"></stop><stop offset="1" stop-color="#EBA0A0" stop-opacity="0"></stop></radialGradient><radialGradient id="image-top_svg__g" cx="0" cy="0" r="1" gradientUnits="userSpaceOnUse" gradientTransform="rotate(34.92 -254.81 989.44) scale(226.231 223.672)"><stop offset="0.21" stop-color="#4ADA72" stop-opacity="0.47"></stop><stop offset="1" stop-color="#3ED87B" stop-opacity="0"></stop></radialGradient><linearGradient id="image-top_svg__j" x1="451.5" y1="169.42" x2="357.36" y2="332.22" gradientUnits="userSpaceOnUse"><stop stop-color="#002A5E" stop-opacity="0"></stop><stop offset="0.83" stop-color="#002A5E"></stop></linearGradient><linearGradient id="image-top_svg__k" x1="123" y1="383.92" x2="217.59" y2="547.48" gradientUnits="userSpaceOnUse"><stop stop-color="#002A5E" stop-opacity="0"></stop><stop offset="0.83" stop-color="#002A5E"></stop></linearGradient><linearGradient id="image-top_svg__l" x1="688.03" y1="486.62" x2="591.97" y2="653.89" gradientUnits="userSpaceOnUse"><stop stop-color="#002A5E"></stop><stop offset="1" stop-color="#002A5E" stop-opacity="0"></stop></linearGradient></defs></svg>