<svg viewBox="0 0 16 12" width="16" height="16"><path fill="#b2becd" d="M15.375 1.422a6.116 6.116 0 01-1.738.478A3.036 3.036 0 0014.97.225c-.585.347-1.232.6-1.922.734A3.026 3.026 0 007.89 3.72 8.574 8.574 0 011.653.553a3.029 3.029 0 00.94 4.044c-.5-.013-.968-.15-1.374-.378v.037a3.028 3.028 0 002.428 2.969 3.045 3.045 0 01-.797.106c-.194 0-.384-.019-.569-.056A3.03 3.03 0 005.11 9.378a6.066 6.066 0 01-4.48 1.253A8.457 8.457 0 005.258 12c5.572 0 8.616-4.616 8.616-8.619 0-.131-.003-.262-.01-.39a6.158 6.158 0 001.51-1.57z"></path></svg>